<svg xmlns="http://www.w3.org/2000/svg" width="226" height="44" fill="none"><path fill="url(#a)" d="M53.408 4.661c-6.427 0-14.203 5.72-21.273 10.067-6.668 4.076-14.396 8.294-21.273 8.294-7.6 0-10.653-4.06-10.862-7.893 0 7.585 3.386 14.86 9.412 20.223 6.027 5.364 14.2 8.377 22.723 8.377s16.696-3.013 22.723-8.377c6.026-5.363 9.412-12.638 9.412-20.223v-.4c0-4.748-4.29-10.082-10.862-10.068Z"/><path fill="url(#b)" d="M53.408 23.037c-6.877 0-14.605-4.233-21.273-8.308-7.07-4.347-14.846-10.082-21.273-10.082C4.306 4.647 0 9.981 0 14.73v.4c0 7.586 3.386 14.86 9.412 20.224 6.027 5.363 14.2 8.376 22.723 8.376s16.696-3.013 22.723-8.376c6.026-5.364 9.412-12.638 9.412-20.224-.209 3.833-3.262 7.908-10.862 7.908Z"/><path fill="url(#c)" d="M53.408 23.037c-6.877 0-14.605-4.233-21.273-8.308-7.07-4.347-14.846-10.082-21.273-10.082C4.306 4.647 0 9.981 0 14.73v.4c0 7.586 3.386 14.86 9.412 20.224 6.027 5.363 14.2 8.376 22.723 8.376s16.696-3.013 22.723-8.376c6.026-5.364 9.412-12.638 9.412-20.224-.209 3.833-3.262 7.908-10.862 7.908Z"/><path fill="#fff" d="m91.61 32.039-.02-8.772h1.165l11.09-12.384h8.498L98.701 26.057h-1.506L91.61 32.04Zm-6.63 9.674V.606h7.272v41.107H84.98Zm19.367 0-10.045-14.03 4.902-5.118 13.842 19.148h-8.699Zm32.512-12.966V10.883h7.273v30.83h-7.052v-5.48h-.322c-.696 1.727-1.841 3.139-3.435 4.236-1.581 1.097-3.53 1.646-5.847 1.646-2.022 0-3.81-.449-5.364-1.345-1.54-.91-2.746-2.228-3.616-3.954-.871-1.74-1.306-3.84-1.306-6.303v-19.63h7.273v18.506c0 1.954.536 3.506 1.607 4.657 1.072 1.15 2.478 1.726 4.219 1.726 1.072 0 2.11-.261 3.114-.783 1.005-.522 1.829-1.298 2.471-2.328.657-1.044.985-2.349.985-3.914ZM158.883.607v41.106h-7.273V.606h7.273Zm21.141 41.708c-3.094 0-5.766-.642-8.016-1.926-2.237-1.298-3.958-3.132-5.164-5.5-1.205-2.382-1.808-5.185-1.808-8.41 0-3.172.603-5.955 1.808-8.35 1.219-2.409 2.92-4.282 5.103-5.62 2.184-1.351 4.749-2.027 7.695-2.027 1.902 0 3.697.307 5.384.923a12.178 12.178 0 0 1 4.501 2.81c1.312 1.271 2.344 2.89 3.094 4.857.75 1.954 1.125 4.282 1.125 6.985v2.228h-25.294v-4.897h18.322c-.013-1.392-.314-2.63-.904-3.714a6.569 6.569 0 0 0-2.471-2.589c-1.045-.629-2.263-.943-3.657-.943-1.486 0-2.792.361-3.917 1.084a7.468 7.468 0 0 0-2.632 2.81c-.616 1.15-.931 2.415-.944 3.793v4.276c0 1.793.328 3.331.984 4.616.656 1.271 1.574 2.248 2.753 2.93 1.178.67 2.558 1.004 4.138 1.004 1.058 0 2.016-.147 2.873-.441a6.375 6.375 0 0 0 2.23-1.345c.63-.59 1.105-1.318 1.427-2.188l6.79.763c-.428 1.793-1.245 3.358-2.451 4.696-1.192 1.325-2.719 2.355-4.58 3.091-1.862.723-3.992 1.084-6.389 1.084Zm28.755.02c-1.956 0-3.717-.348-5.284-1.043-1.554-.71-2.786-1.753-3.697-3.132-.897-1.378-1.346-3.077-1.346-5.098 0-1.74.322-3.178.964-4.315a7.466 7.466 0 0 1 2.632-2.73c1.112-.682 2.364-1.197 3.757-1.545a30.605 30.605 0 0 1 4.36-.783c1.808-.188 3.275-.355 4.4-.502 1.125-.16 1.942-.401 2.451-.722.522-.335.783-.85.783-1.546v-.12c0-1.512-.448-2.683-1.346-3.513-.897-.83-2.189-1.245-3.877-1.245-1.781 0-3.195.389-4.239 1.165-1.032.776-1.728 1.692-2.09 2.75l-6.79-.964c.535-1.873 1.419-3.439 2.652-4.697 1.232-1.27 2.739-2.22 4.52-2.85 1.781-.642 3.75-.963 5.907-.963 1.486 0 2.967.174 4.44.522 1.473.348 2.819.923 4.038 1.726 1.219.79 2.197 1.866 2.933 3.231.75 1.365 1.125 3.071 1.125 5.119v20.633h-6.991v-4.235h-.241c-.442.856-1.065 1.66-1.869 2.409-.79.736-1.788 1.331-2.993 1.786-1.192.442-2.592.662-4.199.662Zm1.888-5.339c1.46 0 2.726-.287 3.797-.863 1.072-.589 1.896-1.364 2.471-2.328.59-.963.885-2.014.885-3.151V27.02c-.228.187-.617.361-1.166.521a16.43 16.43 0 0 1-1.808.422c-.67.12-1.333.228-1.989.321-.656.094-1.225.174-1.708.241-1.085.147-2.056.388-2.913.723-.857.334-1.533.803-2.029 1.405-.495.588-.743 1.351-.743 2.288 0 1.338.489 2.348 1.466 3.03.978.683 2.224 1.024 3.737 1.024Z"/><defs><linearGradient id="a" x1="32.135" x2="32.135" y1="6.549" y2="43.688" gradientUnits="userSpaceOnUse"><stop stop-color="#5558DB"/><stop offset="1"/></linearGradient><linearGradient id="b" x1="32.135" x2="32.135" y1="4.647" y2="32.007" gradientUnits="userSpaceOnUse"><stop stop-color="#00FF47"/><stop offset="1" stop-color="#5558DB"/></linearGradient><linearGradient id="c" x1="32.135" x2="32.135" y1="4.647" y2="32.007" gradientUnits="userSpaceOnUse"><stop stop-color="#00FFC2"/><stop offset="1" stop-color="#5558DB"/></linearGradient></defs></svg>